
<svg xmlns="http://www.w3.org/2000/svg" xmlns:xlink="http://www.w3.org/1999/xlink" version="1.1"  width="1163" height="677">
<defs id="dmw_defs" >
<svg id="fk_sym" viewBox="0 0 48.665 48.665" style="enable-background:new 0 0 48.665 48.665;" >
<g>
<path d="M40.332,31.592c-2.377,0-4.515,1-6.033,2.598l-17.737-8.686c0.061-0.406,0.103-0.82,0.103-1.246    c0-0.414-0.04-0.818-0.098-1.215l17.711-8.589c1.519,1.609,3.666,2.619,6.054,2.619c4.603,0,8.333-3.731,8.333-8.333    c0-4.603-3.73-8.333-8.333-8.333s-8.333,3.73-8.333,8.333c0,0.414,0.04,0.817,0.098,1.215l-17.709,8.589    c-1.519-1.609-3.666-2.619-6.054-2.619C3.73,15.925,0,19.656,0,24.258c0,4.603,3.73,8.333,8.333,8.333    c2.377,0,4.515-1,6.033-2.596l17.736,8.685c-0.062,0.406-0.104,0.82-0.104,1.245c0,4.604,3.73,8.333,8.333,8.333    s8.333-3.729,8.333-8.333C48.665,35.322,44.935,31.592,40.332,31.592z" fill="#13bf3b"/>
</g>
</svg>
<svg id="pk_sym" viewBox="0 0 480.509 480.509" style="enable-background:new 0 0 480.509 480.509;" >
<g>
<path d="M418.119,331.046c4.094,4.374,7.766,8.186,10.996,11.416c3.237,3.238,6.714,6.376,10.427,9.422   c3.71,3.042,6.427,4.568,8.135,4.568c3.241,0,9.517-4.661,18.843-13.99c9.328-9.321,13.989-15.604,13.989-18.842   c0-1.523-2.714-5.421-8.138-11.704c-5.421-6.276-12.364-13.702-20.838-22.271c-8.473-8.565-16.703-16.744-24.694-24.55   c-8.001-7.81-15.8-15.373-23.417-22.703c-7.611-7.327-11.992-11.56-13.135-12.703c-1.902-1.902-4.093-2.853-6.563-2.853   c-3.237,0-9.521,4.661-18.843,13.988c-9.328,9.322-13.989,15.605-13.989,18.843c0,1.711,1.522,4.421,4.568,8.138   c3.046,3.71,6.188,7.187,9.421,10.424c3.23,3.23,7.047,6.899,11.42,10.992c4.377,4.093,6.848,6.423,7.423,6.995l-27.408,27.404   L254.954,222.268c24.94-33.498,37.408-68.236,37.408-104.211c0-31.024-9.761-56.293-29.263-75.801   c-19.512-19.511-44.778-29.265-75.805-29.265c-30.454,0-60.244,9.042-89.363,27.119c-29.121,18.083-52.727,41.686-70.808,70.808   C9.042,140.038,0,169.828,0,200.28c0,31.029,9.753,56.286,29.265,75.803c19.511,19.517,44.777,29.27,75.801,29.27   c35.976,0,70.71-12.467,104.212-37.407l191.574,191.579c5.332,5.328,11.796,7.994,19.417,7.994c7.991,0,15.704-3.72,23.12-11.14   c7.426-7.426,11.143-15.129,11.143-23.127c0-7.617-2.666-14.092-7.994-19.417l-62.811-62.811l27.405-27.404   C411.699,324.195,414.033,326.666,418.119,331.046z M221.556,161.458c-10.656,10.657-23.601,15.987-38.828,15.987   c-7.996,0-15.896-1.812-23.7-5.43c3.617,7.808,5.426,15.706,5.426,23.7c0,15.229-5.327,28.171-15.987,38.828   c-10.66,10.655-23.606,15.986-38.831,15.986c-15.227,0-28.168-5.325-38.828-15.986c-10.657-10.657-15.987-23.599-15.987-38.828   c0-15.227,5.327-28.171,15.987-38.828C81.464,146.23,94.409,140.9,109.636,140.9c7.992,0,15.893,1.809,23.695,5.424   c-3.616-7.804-5.424-15.706-5.424-23.699c0-15.227,5.327-28.171,15.987-38.828c10.66-10.657,23.604-15.987,38.831-15.987   c15.227,0,28.171,5.327,38.828,15.987c10.657,10.66,15.987,23.601,15.987,38.828C237.539,137.852,232.209,150.797,221.556,161.458z   " fill="#ff8345"/>
</g>
</svg>
<svg id="uk_sym" viewBox="0 0 490 490" style="enable-background:new 0 0 490 490;" >
<g>
	<polygon points="236.99,11.41 0,246.348 236.99,478.678 236.99,350.609 129.864,245 236.99,139.391  " fill="#0064fb"/>
<polygon points="253.01,478.59 490,243.651 253.01,11.322 253.01,139.391 360.136,245 253.01,350.609  " fill="#0064fb"/>
</g>
</svg>
<svg id="link_sym" viewBox="0 0 1000 900" style="enable-background:new 0 0 1000 900;" >
<g>
<path fill="black" d="M660.224 422.656c6.976 16.192-0.512 35.008-16.768 42.048-16.128 6.976-34.944-0.448-41.984-16.768-8.448-19.776-20.736-37.696-36.224-53.248-64.64-64.64-177.344-64.64-241.92 0l-145.216 145.28c-66.688 66.688-66.688 175.232 0 241.984 66.688 66.688 175.104 66.752 241.92 0l92.8-92.864c12.48-12.48 32.768-12.48 45.248 0s12.48 32.768 0 45.248l-92.8 92.864c-91.648 91.648-240.832 91.52-332.416 0-91.712-91.648-91.712-240.832 0-332.48l145.216-145.28c44.352-44.416 103.424-68.864 166.272-68.864s121.792 24.448 166.208 68.864c21.248 21.312 38.016 45.952 49.664 73.216zM891.136 401.344l-145.216 145.216c-88.768 88.832-243.712 88.832-332.416 0-21.312-21.312-38.080-45.952-49.728-73.216-7.040-16.256 0.448-35.072 16.704-42.048 16.064-6.784 35.008 0.512 41.984 16.768 8.512 19.776 20.8 37.696 36.288 53.248 64.64 64.64 177.344 64.64 241.92 0l145.216-145.216c66.688-66.688 66.688-175.232 0-241.984-66.752-66.624-175.168-66.688-241.92 0l-92.8 92.864c-12.48 12.48-32.768 12.48-45.248 0s-12.48-32.768 0-45.248l92.8-92.864c45.824-45.824 105.984-68.736 166.208-68.736s120.448 22.912 166.272 68.736c91.584 91.648 91.584 240.768-0.064 332.48z" />
</g>
</svg>
<clipPath clipPathUnits="userSpaceOnUse" id="clipPath11_0_">
<rect x="0" y="0" width="181" height="146" />
</clipPath>
<clipPath clipPathUnits="userSpaceOnUse" id="clipPath4_0_">
<rect x="0" y="0" width="187" height="80" />
</clipPath>
<clipPath clipPathUnits="userSpaceOnUse" id="clipPath1_0_">
<rect x="0" y="0" width="224" height="144" />
</clipPath>
<clipPath clipPathUnits="userSpaceOnUse" id="clipPath12_0_">
<rect x="0" y="0" width="185" height="79" />
</clipPath>
<clipPath clipPathUnits="userSpaceOnUse" id="clipPath3_0_">
<rect x="0" y="0" width="251" height="251" />
</clipPath>
<clipPath clipPathUnits="userSpaceOnUse" id="clipPath8_0_">
<rect x="0" y="0" width="265" height="125" />
</clipPath>
<clipPath clipPathUnits="userSpaceOnUse" id="clipPath2_0_">
<rect x="0" y="0" width="243" height="140" />
</clipPath>
<clipPath clipPathUnits="userSpaceOnUse" id="clipPath10_0_">
<rect x="0" y="0" width="212" height="109" />
</clipPath>
<clipPath clipPathUnits="userSpaceOnUse" id="clipPath5_0_">
<rect x="0" y="0" width="187" height="185" />
</clipPath>
<clipPath clipPathUnits="userSpaceOnUse" id="clipPath6_0_">
<rect x="0" y="0" width="187" height="112" />
</clipPath>
<clipPath clipPathUnits="userSpaceOnUse" id="clipPath9_0_">
<rect x="0" y="0" width="246" height="150" />
</clipPath>
<clipPath clipPathUnits="userSpaceOnUse" id="clipPath7_0_">
<rect x="0" y="0" width="287" height="233" />
</clipPath>
</defs>
<g stroke-linecap="butt" >
<path stroke="rgb(0,0,0)" fill="none" stroke-opacity="1.0"  stroke-width="1" d="M688 375 L688 306" />
<polygon stroke="rgb(0,0,0)" stroke-dasharray="none" points="688 375 685 369 691 369" fill="rgb(0,0,0)" stroke-width="1" stroke-opacity="1.0"  />
<path stroke-dasharray="none" d="M694.0 306.0 L688.0 318.0 L682.0 306.0 M694.0 318.5999994277954 L682.0 318.5999994277954" fill="white" stroke-width="1" stroke-opacity="1.0" stroke="rgb(0,0,0)" />
</g>
<g stroke-linecap="butt" >
<path stroke="rgb(0,0,0)" fill="none" stroke-opacity="1.0"  stroke-width="1" d="M523 421 L555 421" />
<polygon stroke="rgb(0,0,0)" stroke-dasharray="none" points="523 421 529 418 529 424" fill="rgb(0,0,0)" stroke-width="1" stroke-opacity="1.0"  />
<path stroke-dasharray="none" d="M555.0 427.0 L543.0 421.0 L555.0 415.0 M542.4000005722046 427.0 L542.4000005722046 415.0" fill="white" stroke-width="1" stroke-opacity="1.0" stroke="rgb(0,0,0)" />
</g>
<g stroke-linecap="butt" >
<path stroke="rgb(0,0,0)" fill="none" stroke-opacity="1.0"  stroke-width="1" d="M825 239 L825 375" />
<polygon stroke="rgb(0,0,0)" stroke-dasharray="none" points="825 239 828 245 822 245" fill="rgb(0,0,0)" stroke-width="1" stroke-opacity="1.0"  />
<path stroke-dasharray="none" d="M819.0 375.0 L825.0 363.0 L831.0 375.0 M819.0 362.4000005722046 L831.0 362.4000005722046" fill="white" stroke-width="1" stroke-opacity="1.0" stroke="rgb(0,0,0)" />
</g>
<g stroke-linecap="butt" >
<path stroke="rgb(0,0,0)" fill="none" stroke-opacity="1.0"  stroke-width="1" d="M520 174 L546 174" />
<polygon stroke="rgb(0,0,0)" stroke-dasharray="none" points="520 174 526 171 526 177" fill="rgb(0,0,0)" stroke-width="1" stroke-opacity="1.0"  />
<path stroke-dasharray="none" d="M546.0 180.0 L534.0 174.0 L546.0 168.0 M533.4000005722046 180.0 L533.4000005722046 168.0" fill="white" stroke-width="1" stroke-opacity="1.0" stroke="rgb(0,0,0)" />
</g>
<g stroke-linecap="butt" >
<path stroke="rgb(0,0,0)" fill="none" stroke-opacity="1.0"  stroke-width="1" d="M1045 401 L1045 451" />
<polygon stroke="rgb(0,0,0)" stroke-dasharray="none" points="1045 401 1048 407 1042 407" fill="rgb(0,0,0)" stroke-width="1" stroke-opacity="1.0"  />
<path stroke-dasharray="none" d="M1039.0 451.0 L1045.0 439.0 L1051.0 451.0 M1039.0 438.4000005722046 L1051.0 438.4000005722046" fill="white" stroke-width="1" stroke-opacity="1.0" stroke="rgb(0,0,0)" />
</g>
<g stroke-linecap="butt" >
<path stroke="rgb(0,0,0)" fill="none" stroke-opacity="1.0"  stroke-width="1" d="M233 408 L272 408" />
<polygon stroke="rgb(0,0,0)" stroke-dasharray="none" points="233 408 239 405 239 411" fill="rgb(0,0,0)" stroke-width="1" stroke-opacity="1.0"  />
<path stroke-dasharray="none" d="M272.0 414.0 L260.0 408.0 L272.0 402.0 M259.4000005722046 414.0 L259.4000005722046 402.0" fill="white" stroke-width="1" stroke-opacity="1.0" stroke="rgb(0,0,0)" />
</g>
<g stroke-linecap="butt" >
<path stroke="rgb(0,0,0)" fill="none" stroke-opacity="1.0"  stroke-width="1" d="M933 388 L842 388" />
<polygon stroke="rgb(0,0,0)" stroke-dasharray="none" points="933 388 927 391 927 385" fill="rgb(0,0,0)" stroke-width="1" stroke-opacity="1.0"  />
<path stroke-dasharray="none" d="M842.0 382.0 L854.0 388.0 L842.0 394.0 M854.5999994277954 382.0 L854.5999994277954 394.0" fill="white" stroke-width="1" stroke-opacity="1.0" stroke="rgb(0,0,0)" />
</g>
<g stroke-linecap="butt" >
<path stroke="rgb(0,0,0)" fill="none" stroke-opacity="1.0"  stroke-width="1" d="M584 104 L520 104" />
<polygon stroke="rgb(0,0,0)" stroke-dasharray="none" points="584 104 578 107 578 101" fill="rgb(0,0,0)" stroke-width="1" stroke-opacity="1.0"  />
<path stroke-dasharray="none" d="M520.0 98.0 L532.0 104.0 L520.0 110.0 M532.5999994277954 98.0 L532.5999994277954 110.0" fill="white" stroke-width="1" stroke-opacity="1.0" stroke="rgb(0,0,0)" />
</g>
<g stroke-linecap="butt" >
<path stroke="rgb(0,0,0)" fill="none" stroke-opacity="1.0"  stroke-width="1" d="M234 265 L272 265" />
<polygon stroke="rgb(0,0,0)" stroke-dasharray="none" points="234 265 240 262 240 268" fill="rgb(0,0,0)" stroke-width="1" stroke-opacity="1.0"  />
<path stroke-dasharray="none" d="M272.0 271.0 L260.0 265.0 L272.0 259.0 M259.4000005722046 271.0 L259.4000005722046 259.0" fill="white" stroke-width="1" stroke-opacity="1.0" stroke="rgb(0,0,0)" />
</g>
<g stroke-linecap="butt" >
<path stroke="rgb(0,0,0)" fill="none" stroke-opacity="1.0"  stroke-width="1" d="M555 565 L516 565" />
<polygon stroke="rgb(0,0,0)" stroke-dasharray="none" points="555 565 549 568 549 562" fill="rgb(0,0,0)" stroke-width="1" stroke-opacity="1.0"  />
<path stroke-dasharray="none" d="M522.0 559.0 L522.0 571.0 M527.3999996185303 559.0 L527.3999996185303 571.0" fill="white" stroke-width="1" stroke-opacity="1.0" stroke="rgb(0,0,0)" />
</g>
<g stroke-linecap="butt" >
<path stroke="rgb(0,0,0)" fill="none" stroke-opacity="1.0"  stroke-width="1" d="M920 521 L842 521" />
<polygon stroke="rgb(0,0,0)" stroke-dasharray="none" points="920 521 914 524 914 518" fill="rgb(0,0,0)" stroke-width="1" stroke-opacity="1.0"  />
<path stroke-dasharray="none" d="M842.0 515.0 L854.0 521.0 L842.0 527.0 M854.5999994277954 515.0 L854.5999994277954 527.0" fill="white" stroke-width="1" stroke-opacity="1.0" stroke="rgb(0,0,0)" />
</g>
<g  fill="rgb(255,255,180)" stroke="rgb(0,0,255)" fill-opacity="1.0" stroke-opacity="1.0" clip-path="url(#clipPath1_0_)" transform="translate(933,257)" >
<rect x="0" y="0" width="223" height="143" />
<text id="6A278336-D51EBD0305CF" x="95" y="14" fill="rgb(0,0,255)" font-weight="bold"  fill-opacity="1.0" font-size="10" stroke="none">
Cliente
</text>
<line x1="0" y1="18" x2="222" y2="18" fill="none" stroke="rgb(0,0,255)"/>
<text x="16" y="32" fill="rgb(255,0,0)" fill-opacity="1.0" font-size="10" stroke="none">
*
</text>
<text x="2" y="32" fill="rgb(0,0,255)" fill-opacity="1.0" font-size="10" stroke="none">
P
</text>
<text x="26" y="32" fill="rgb(0,0,0)" fill-opacity="1.0" font-size="10" stroke="none">
dpi
</text>
<text x="133" y="32" fill="rgb(0,128,0)" fill-opacity="1.0" font-size="10" stroke="none">
INTEGER
</text>
<text x="16" y="46" fill="rgb(255,0,0)" fill-opacity="1.0" font-size="10" stroke="none">
*
</text>
<text x="26" y="46" fill="rgb(0,0,0)" fill-opacity="1.0" font-size="10" stroke="none">
nombres
</text>
<text x="133" y="46" fill="rgb(0,128,0)" fill-opacity="1.0" font-size="10" stroke="none">
VARCHAR2 (50)
</text>
<text x="16" y="60" fill="rgb(255,0,0)" fill-opacity="1.0" font-size="10" stroke="none">
*
</text>
<text x="26" y="60" fill="rgb(0,0,0)" fill-opacity="1.0" font-size="10" stroke="none">
apellidos
</text>
<text x="133" y="60" fill="rgb(0,128,0)" fill-opacity="1.0" font-size="10" stroke="none">
VARCHAR2 (50)
</text>
<text x="16" y="74" fill="rgb(255,0,0)" fill-opacity="1.0" font-size="10" stroke="none">
*
</text>
<text x="26" y="74" fill="rgb(0,0,0)" fill-opacity="1.0" font-size="10" stroke="none">
fecha_nacimiento
</text>
<text x="133" y="74" fill="rgb(0,128,0)" fill-opacity="1.0" font-size="10" stroke="none">
DATE
</text>
<text x="16" y="88" fill="rgb(255,0,0)" fill-opacity="1.0" font-size="10" stroke="none">
*
</text>
<text x="26" y="88" fill="rgb(0,0,0)" fill-opacity="1.0" font-size="10" stroke="none">
correo
</text>
<text x="133" y="88" fill="rgb(0,128,0)" fill-opacity="1.0" font-size="10" stroke="none">
VARCHAR2 (50)
</text>
<text x="16" y="102" fill="rgb(255,0,0)" fill-opacity="1.0" font-size="10" stroke="none">
*
</text>
<text x="26" y="102" fill="rgb(0,0,0)" fill-opacity="1.0" font-size="10" stroke="none">
telefono
</text>
<text x="133" y="102" fill="rgb(0,128,0)" fill-opacity="1.0" font-size="10" stroke="none">
INTEGER
</text>
<text x="16" y="116" fill="rgb(255,0,0)" fill-opacity="1.0" font-size="10" stroke="none">

</text>
<text x="26" y="116" fill="rgb(0,0,0)" fill-opacity="1.0" font-size="10" stroke="none">
nit
</text>
<text x="133" y="116" fill="rgb(0,128,0)" fill-opacity="1.0" font-size="10" stroke="none">
INTEGER
</text>
<line x1="0" y1="122" x2="222" y2="122" fill="none" stroke="rgb(0,0,255)"/>
<use xlink:href="#pk_sym" x="4" y="129" width="8" height="8" fill-opacity="1.0"/>
<text x="16" y="136" fill="rgb(0,0,0)" fill-opacity="1.0" font-size="10" stroke="none">
Cliente_PK (dpi)
</text>
</g>
<g  fill="rgb(255,255,180)" stroke="rgb(0,0,255)" fill-opacity="1.0" stroke-opacity="1.0" clip-path="url(#clipPath2_0_)" transform="translate(920,451)" >
<rect x="0" y="0" width="242" height="139" />
<text id="AEF81EE8-0ADB63213DFC" x="78" y="14" fill="rgb(0,0,255)" font-weight="bold"  fill-opacity="1.0" font-size="10" stroke="none">
Direccion_cliente
</text>
<line x1="0" y1="18" x2="241" y2="18" fill="none" stroke="rgb(0,0,255)"/>
<text x="16" y="32" fill="rgb(255,0,0)" fill-opacity="1.0" font-size="10" stroke="none">
*
</text>
<text x="2" y="32" fill="rgb(0,0,255)" fill-opacity="1.0" font-size="10" stroke="none">
P
</text>
<text x="26" y="32" fill="rgb(0,0,0)" fill-opacity="1.0" font-size="10" stroke="none">
id
</text>
<text x="101" y="32" fill="rgb(0,128,0)" fill-opacity="1.0" font-size="10" stroke="none">
INTEGER
</text>
<text x="16" y="46" fill="rgb(255,0,0)" fill-opacity="1.0" font-size="10" stroke="none">
*
</text>
<text x="26" y="46" fill="rgb(0,0,0)" fill-opacity="1.0" font-size="10" stroke="none">
direccion
</text>
<text x="101" y="46" fill="rgb(0,128,0)" fill-opacity="1.0" font-size="10" stroke="none">
VARCHAR2 (50)
</text>
<text x="16" y="60" fill="rgb(255,0,0)" fill-opacity="1.0" font-size="10" stroke="none">
*
</text>
<text x="26" y="60" fill="rgb(0,0,0)" fill-opacity="1.0" font-size="10" stroke="none">
municipio
</text>
<text x="101" y="60" fill="rgb(0,128,0)" fill-opacity="1.0" font-size="10" stroke="none">
VARCHAR2 (50)
</text>
<text x="16" y="74" fill="rgb(255,0,0)" fill-opacity="1.0" font-size="10" stroke="none">
*
</text>
<text x="26" y="74" fill="rgb(0,0,0)" fill-opacity="1.0" font-size="10" stroke="none">
zona
</text>
<text x="101" y="74" fill="rgb(0,128,0)" fill-opacity="1.0" font-size="10" stroke="none">
INTEGER
</text>
<text x="16" y="88" fill="rgb(255,0,0)" fill-opacity="1.0" font-size="10" stroke="none">
*
</text>
<text x="2" y="88" fill="rgb(0,0,0)" fill-opacity="1.0" font-size="10" stroke="none">
F
</text>
<text x="26" y="88" fill="rgb(0,0,0)" fill-opacity="1.0" font-size="10" stroke="none">
Cliente_dpi
</text>
<text x="101" y="88" fill="rgb(0,128,0)" fill-opacity="1.0" font-size="10" stroke="none">
INTEGER
</text>
<line x1="0" y1="94" x2="241" y2="94" fill="none" stroke="rgb(0,0,255)"/>
<use xlink:href="#pk_sym" x="4" y="101" width="8" height="8" fill-opacity="1.0"/>
<text x="16" y="108" fill="rgb(0,0,0)" fill-opacity="1.0" font-size="10" stroke="none">
Direccion_cliente_PK (id)
</text>
<line x1="0" y1="114" x2="241" y2="114" fill="none" stroke="rgb(0,0,255)"/>
<use xlink:href="#fk_sym" x="4" y="121" width="8" height="8" fill-opacity="1.0"/><a xlink:href="#6A278336-D51EBD0305CF" >
<text x="16" y="128" fill="rgb(0,0,0)" fill-opacity="1.0" font-size="10" stroke="none">
Direccion_cliente_Cliente_FK (Cliente_dpi)
</text></a>
</g>
<g  fill="rgb(255,255,180)" stroke="rgb(0,0,255)" fill-opacity="1.0" stroke-opacity="1.0" clip-path="url(#clipPath3_0_)" transform="translate(272,216)" >
<rect x="0" y="0" width="250" height="250" />
<text id="8D678204-7069AAD1C3D8" x="101" y="14" fill="rgb(0,0,255)" font-weight="bold"  fill-opacity="1.0" font-size="10" stroke="none">
Empleado
</text>
<line x1="0" y1="18" x2="249" y2="18" fill="none" stroke="rgb(0,0,255)"/>
<text x="16" y="32" fill="rgb(255,0,0)" fill-opacity="1.0" font-size="10" stroke="none">
*
</text>
<text x="2" y="32" fill="rgb(0,0,255)" fill-opacity="1.0" font-size="10" stroke="none">
P
</text>
<text x="26" y="32" fill="rgb(0,0,0)" fill-opacity="1.0" font-size="10" stroke="none">
id
</text>
<text x="133" y="32" fill="rgb(0,128,0)" fill-opacity="1.0" font-size="10" stroke="none">
INTEGER
</text>
<text x="16" y="46" fill="rgb(255,0,0)" fill-opacity="1.0" font-size="10" stroke="none">
*
</text>
<text x="26" y="46" fill="rgb(0,0,0)" fill-opacity="1.0" font-size="10" stroke="none">
nombres
</text>
<text x="133" y="46" fill="rgb(0,128,0)" fill-opacity="1.0" font-size="10" stroke="none">
VARCHAR2 (50)
</text>
<text x="16" y="60" fill="rgb(255,0,0)" fill-opacity="1.0" font-size="10" stroke="none">
*
</text>
<text x="26" y="60" fill="rgb(0,0,0)" fill-opacity="1.0" font-size="10" stroke="none">
apellidos
</text>
<text x="133" y="60" fill="rgb(0,128,0)" fill-opacity="1.0" font-size="10" stroke="none">
VARCHAR2 (50)
</text>
<text x="16" y="74" fill="rgb(255,0,0)" fill-opacity="1.0" font-size="10" stroke="none">

</text>
<text x="26" y="74" fill="rgb(0,0,0)" fill-opacity="1.0" font-size="10" stroke="none">
fecha_nacimiento
</text>
<text x="133" y="74" fill="rgb(0,128,0)" fill-opacity="1.0" font-size="10" stroke="none">
DATE
</text>
<text x="16" y="88" fill="rgb(255,0,0)" fill-opacity="1.0" font-size="10" stroke="none">
*
</text>
<text x="26" y="88" fill="rgb(0,0,0)" fill-opacity="1.0" font-size="10" stroke="none">
correo
</text>
<text x="133" y="88" fill="rgb(0,128,0)" fill-opacity="1.0" font-size="10" stroke="none">
VARCHAR2 (50)
</text>
<text x="16" y="102" fill="rgb(255,0,0)" fill-opacity="1.0" font-size="10" stroke="none">
*
</text>
<text x="26" y="102" fill="rgb(0,0,0)" fill-opacity="1.0" font-size="10" stroke="none">
telefono
</text>
<text x="133" y="102" fill="rgb(0,128,0)" fill-opacity="1.0" font-size="10" stroke="none">
INTEGER
</text>
<text x="16" y="116" fill="rgb(255,0,0)" fill-opacity="1.0" font-size="10" stroke="none">
*
</text>
<text x="26" y="116" fill="rgb(0,0,0)" fill-opacity="1.0" font-size="10" stroke="none">
direccion
</text>
<text x="133" y="116" fill="rgb(0,128,0)" fill-opacity="1.0" font-size="10" stroke="none">
VARCHAR2 (50)
</text>
<text x="16" y="130" fill="rgb(255,0,0)" fill-opacity="1.0" font-size="10" stroke="none">
*
</text>
<text x="26" y="130" fill="rgb(0,0,0)" fill-opacity="1.0" font-size="10" stroke="none">
dpi
</text>
<text x="133" y="130" fill="rgb(0,128,0)" fill-opacity="1.0" font-size="10" stroke="none">
INTEGER
</text>
<text x="16" y="144" fill="rgb(255,0,0)" fill-opacity="1.0" font-size="10" stroke="none">
*
</text>
<text x="26" y="144" fill="rgb(0,0,0)" fill-opacity="1.0" font-size="10" stroke="none">
fecha_inicio
</text>
<text x="133" y="144" fill="rgb(0,128,0)" fill-opacity="1.0" font-size="10" stroke="none">
DATE
</text>
<text x="16" y="158" fill="rgb(255,0,0)" fill-opacity="1.0" font-size="10" stroke="none">
*
</text>
<text x="2" y="158" fill="rgb(0,0,0)" fill-opacity="1.0" font-size="10" stroke="none">
F
</text>
<text x="26" y="158" fill="rgb(0,0,0)" fill-opacity="1.0" font-size="10" stroke="none">
Puesto_id
</text>
<text x="133" y="158" fill="rgb(0,128,0)" fill-opacity="1.0" font-size="10" stroke="none">
INTEGER
</text>
<text x="16" y="172" fill="rgb(255,0,0)" fill-opacity="1.0" font-size="10" stroke="none">
*
</text>
<text x="26" y="172" fill="rgb(0,0,0)" fill-opacity="1.0" font-size="10" stroke="none">
id2
</text>
<text x="133" y="172" fill="rgb(0,128,0)" fill-opacity="1.0" font-size="10" stroke="none">
INTEGER
</text>
<text x="16" y="186" fill="rgb(255,0,0)" fill-opacity="1.0" font-size="10" stroke="none">
*
</text>
<text x="2" y="186" fill="rgb(0,0,0)" fill-opacity="1.0" font-size="10" stroke="none">
F
</text>
<text x="26" y="186" fill="rgb(0,0,0)" fill-opacity="1.0" font-size="10" stroke="none">
Restaurante_id
</text>
<text x="133" y="186" fill="rgb(0,128,0)" fill-opacity="1.0" font-size="10" stroke="none">
VARCHAR2 (50)
</text>
<line x1="0" y1="192" x2="249" y2="192" fill="none" stroke="rgb(0,0,255)"/>
<use xlink:href="#pk_sym" x="4" y="199" width="8" height="8" fill-opacity="1.0"/>
<text x="16" y="206" fill="rgb(0,0,0)" fill-opacity="1.0" font-size="10" stroke="none">
Empleado_PK (id)
</text>
<line x1="0" y1="212" x2="249" y2="212" fill="none" stroke="rgb(0,0,255)"/>
<use xlink:href="#fk_sym" x="4" y="219" width="8" height="8" fill-opacity="1.0"/><a xlink:href="#02800043-AA489C77C53B" >
<text x="16" y="226" fill="rgb(0,0,0)" fill-opacity="1.0" font-size="10" stroke="none">
Empleado_Restaurante_FK (Restaurante_id)
</text></a>
<use xlink:href="#fk_sym" x="4" y="233" width="8" height="8" fill-opacity="1.0"/><a xlink:href="#B823E981-977A21A89CDC" >
<text x="16" y="240" fill="rgb(0,0,0)" fill-opacity="1.0" font-size="10" stroke="none">
Empleado_Puesto_FK (Puesto_id)
</text></a>
</g>
<g  fill="rgb(255,255,180)" stroke="rgb(0,0,255)" fill-opacity="1.0" stroke-opacity="1.0" clip-path="url(#clipPath4_0_)" transform="translate(809,159)" >
<rect x="0" y="0" width="186" height="79" />
<text id="3E358BB1-8E8B633D93E3" x="76" y="14" fill="rgb(0,0,255)" font-weight="bold"  fill-opacity="1.0" font-size="10" stroke="none">
Estado
</text>
<line x1="0" y1="18" x2="185" y2="18" fill="none" stroke="rgb(0,0,255)"/>
<text x="16" y="32" fill="rgb(255,0,0)" fill-opacity="1.0" font-size="10" stroke="none">
*
</text>
<text x="2" y="32" fill="rgb(0,0,255)" fill-opacity="1.0" font-size="10" stroke="none">
P
</text>
<text x="26" y="32" fill="rgb(0,0,0)" fill-opacity="1.0" font-size="10" stroke="none">
id
</text>
<text x="101" y="32" fill="rgb(0,128,0)" fill-opacity="1.0" font-size="10" stroke="none">
INTEGER
</text>
<text x="16" y="46" fill="rgb(255,0,0)" fill-opacity="1.0" font-size="10" stroke="none">
*
</text>
<text x="26" y="46" fill="rgb(0,0,0)" fill-opacity="1.0" font-size="10" stroke="none">
descripcion
</text>
<text x="101" y="46" fill="rgb(0,128,0)" fill-opacity="1.0" font-size="10" stroke="none">
VARCHAR2 (50)
</text>
<line x1="0" y1="52" x2="185" y2="52" fill="none" stroke="rgb(0,0,255)"/>
<use xlink:href="#pk_sym" x="4" y="59" width="8" height="8" fill-opacity="1.0"/>
<text x="16" y="66" fill="rgb(0,0,0)" fill-opacity="1.0" font-size="10" stroke="none">
Estado_PK (id)
</text>
</g>
<g  fill="rgb(255,255,180)" stroke="rgb(0,0,255)" fill-opacity="1.0" stroke-opacity="1.0" clip-path="url(#clipPath5_0_)" transform="translate(329,492)" >
<rect x="0" y="0" width="186" height="184" />
<text id="D668F750-826D5768A26F" x="75" y="14" fill="rgb(0,0,255)" font-weight="bold"  fill-opacity="1.0" font-size="10" stroke="none">
Factura
</text>
<line x1="0" y1="18" x2="185" y2="18" fill="none" stroke="rgb(0,0,255)"/>
<text x="16" y="32" fill="rgb(255,0,0)" fill-opacity="1.0" font-size="10" stroke="none">
*
</text>
<text x="2" y="32" fill="rgb(0,0,255)" fill-opacity="1.0" font-size="10" stroke="none">
P
</text>
<text x="26" y="32" fill="rgb(0,0,0)" fill-opacity="1.0" font-size="10" stroke="none">
serie
</text>
<text x="90" y="32" fill="rgb(0,128,0)" fill-opacity="1.0" font-size="10" stroke="none">
VARCHAR2 (50)
</text>
<text x="16" y="46" fill="rgb(255,0,0)" fill-opacity="1.0" font-size="10" stroke="none">
*
</text>
<text x="26" y="46" fill="rgb(0,0,0)" fill-opacity="1.0" font-size="10" stroke="none">
total
</text>
<text x="90" y="46" fill="rgb(0,128,0)" fill-opacity="1.0" font-size="10" stroke="none">
INTEGER
</text>
<text x="16" y="60" fill="rgb(255,0,0)" fill-opacity="1.0" font-size="10" stroke="none">
*
</text>
<text x="26" y="60" fill="rgb(0,0,0)" fill-opacity="1.0" font-size="10" stroke="none">
fecha
</text>
<text x="90" y="60" fill="rgb(0,128,0)" fill-opacity="1.0" font-size="10" stroke="none">
DATE
</text>
<text x="16" y="74" fill="rgb(255,0,0)" fill-opacity="1.0" font-size="10" stroke="none">
*
</text>
<text x="26" y="74" fill="rgb(0,0,0)" fill-opacity="1.0" font-size="10" stroke="none">
pago
</text>
<text x="90" y="74" fill="rgb(0,128,0)" fill-opacity="1.0" font-size="10" stroke="none">
VARCHAR2 (5)
</text>
<text x="16" y="88" fill="rgb(255,0,0)" fill-opacity="1.0" font-size="10" stroke="none">
*
</text>
<text x="26" y="88" fill="rgb(0,0,0)" fill-opacity="1.0" font-size="10" stroke="none">
nit
</text>
<text x="90" y="88" fill="rgb(0,128,0)" fill-opacity="1.0" font-size="10" stroke="none">
INTEGER
</text>
<text x="16" y="102" fill="rgb(255,0,0)" fill-opacity="1.0" font-size="10" stroke="none">
*
</text>
<text x="26" y="102" fill="rgb(0,0,0)" fill-opacity="1.0" font-size="10" stroke="none">
lugar
</text>
<text x="90" y="102" fill="rgb(0,128,0)" fill-opacity="1.0" font-size="10" stroke="none">
VARCHAR2 (50)
</text>
<text x="16" y="116" fill="rgb(255,0,0)" fill-opacity="1.0" font-size="10" stroke="none">
*
</text>
<text x="2" y="116" fill="rgb(0,0,0)" fill-opacity="1.0" font-size="10" stroke="none">
F
</text>
<text x="26" y="116" fill="rgb(0,0,0)" fill-opacity="1.0" font-size="10" stroke="none">
Orden_id
</text>
<text x="90" y="116" fill="rgb(0,128,0)" fill-opacity="1.0" font-size="10" stroke="none">
INTEGER
</text>
<line x1="0" y1="122" x2="185" y2="122" fill="none" stroke="rgb(0,0,255)"/>
<use xlink:href="#pk_sym" x="4" y="129" width="8" height="8" fill-opacity="1.0"/>
<text x="16" y="136" fill="rgb(0,0,0)" fill-opacity="1.0" font-size="10" stroke="none">
Factura_PK (serie)
</text>
<line x1="0" y1="142" x2="185" y2="142" fill="none" stroke="rgb(0,0,255)"/>
<use xlink:href="#fk_sym" x="4" y="149" width="8" height="8" fill-opacity="1.0"/><a xlink:href="#FD8CB94D-C0AC429F83A3" >
<text x="16" y="156" fill="rgb(0,0,0)" fill-opacity="1.0" font-size="10" stroke="none">
Factura_Orden_FK (Orden_id)
</text></a>
<line x1="0" y1="162" x2="185" y2="162" fill="none" stroke="rgb(0,0,255)"/>
<text x="2" y="176" fill="rgb(0,0,0)" fill-opacity="1.0" font-size="10" stroke="none">
U
</text>
<text x="16" y="176" fill="rgb(0,0,0)" fill-opacity="1.0" font-size="10" stroke="none">
Factura__IDX (Orden_id)
</text>
</g>
<g  fill="rgb(255,255,180)" stroke="rgb(0,0,255)" fill-opacity="1.0" stroke-opacity="1.0" clip-path="url(#clipPath7_0_)" transform="translate(555,375)" >
<rect x="0" y="0" width="286" height="232" />
<text id="FD8CB94D-C0AC429F83A3" x="128" y="14" fill="rgb(0,0,255)" font-weight="bold"  fill-opacity="1.0" font-size="10" stroke="none">
Orden
</text>
<line x1="0" y1="18" x2="285" y2="18" fill="none" stroke="rgb(0,0,255)"/>
<text x="16" y="32" fill="rgb(255,0,0)" fill-opacity="1.0" font-size="10" stroke="none">
*
</text>
<text x="2" y="32" fill="rgb(0,0,255)" fill-opacity="1.0" font-size="10" stroke="none">
P
</text>
<text x="26" y="32" fill="rgb(0,0,0)" fill-opacity="1.0" font-size="10" stroke="none">
id
</text>
<text x="146" y="32" fill="rgb(0,128,0)" fill-opacity="1.0" font-size="10" stroke="none">
INTEGER
</text>
<text x="16" y="46" fill="rgb(255,0,0)" fill-opacity="1.0" font-size="10" stroke="none">
*
</text>
<text x="26" y="46" fill="rgb(0,0,0)" fill-opacity="1.0" font-size="10" stroke="none">
canal
</text>
<text x="146" y="46" fill="rgb(0,128,0)" fill-opacity="1.0" font-size="10" stroke="none">
VARCHAR2 (5)
</text>
<text x="16" y="60" fill="rgb(255,0,0)" fill-opacity="1.0" font-size="10" stroke="none">
*
</text>
<text x="26" y="60" fill="rgb(0,0,0)" fill-opacity="1.0" font-size="10" stroke="none">
fecha_inicio
</text>
<text x="146" y="60" fill="rgb(0,128,0)" fill-opacity="1.0" font-size="10" stroke="none">
DATE
</text>
<text x="16" y="74" fill="rgb(255,0,0)" fill-opacity="1.0" font-size="10" stroke="none">

</text>
<text x="26" y="74" fill="rgb(0,0,0)" fill-opacity="1.0" font-size="10" stroke="none">
fecha_entrega
</text>
<text x="146" y="74" fill="rgb(0,128,0)" fill-opacity="1.0" font-size="10" stroke="none">
DATE
</text>
<text x="16" y="88" fill="rgb(255,0,0)" fill-opacity="1.0" font-size="10" stroke="none">
*
</text>
<text x="26" y="88" fill="rgb(0,0,0)" fill-opacity="1.0" font-size="10" stroke="none">
estado
</text>
<text x="146" y="88" fill="rgb(0,128,0)" fill-opacity="1.0" font-size="10" stroke="none">
VARCHAR2 (50)
</text>
<text x="16" y="102" fill="rgb(255,0,0)" fill-opacity="1.0" font-size="10" stroke="none">
*
</text>
<text x="2" y="102" fill="rgb(0,0,0)" fill-opacity="1.0" font-size="10" stroke="none">
F
</text>
<text x="26" y="102" fill="rgb(0,0,0)" fill-opacity="1.0" font-size="10" stroke="none">
Cliente_dpi
</text>
<text x="146" y="102" fill="rgb(0,128,0)" fill-opacity="1.0" font-size="10" stroke="none">
INTEGER
</text>
<text x="16" y="116" fill="rgb(255,0,0)" fill-opacity="1.0" font-size="10" stroke="none">
*
</text>
<text x="2" y="116" fill="rgb(0,0,0)" fill-opacity="1.0" font-size="10" stroke="none">
F
</text>
<text x="26" y="116" fill="rgb(0,0,0)" fill-opacity="1.0" font-size="10" stroke="none">
Direccion_cliente_id
</text>
<text x="146" y="116" fill="rgb(0,128,0)" fill-opacity="1.0" font-size="10" stroke="none">
INTEGER
</text>
<text x="16" y="130" fill="rgb(255,0,0)" fill-opacity="1.0" font-size="10" stroke="none">
*
</text>
<text x="2" y="130" fill="rgb(0,0,0)" fill-opacity="1.0" font-size="10" stroke="none">
F
</text>
<text x="26" y="130" fill="rgb(0,0,0)" fill-opacity="1.0" font-size="10" stroke="none">
Estado_id
</text>
<text x="146" y="130" fill="rgb(0,128,0)" fill-opacity="1.0" font-size="10" stroke="none">
INTEGER
</text>
<text x="16" y="144" fill="rgb(255,0,0)" fill-opacity="1.0" font-size="10" stroke="none">
*
</text>
<text x="2" y="144" fill="rgb(0,0,0)" fill-opacity="1.0" font-size="10" stroke="none">
F
</text>
<text x="26" y="144" fill="rgb(0,0,0)" fill-opacity="1.0" font-size="10" stroke="none">
Empleado_id
</text>
<text x="146" y="144" fill="rgb(0,128,0)" fill-opacity="1.0" font-size="10" stroke="none">
INTEGER
</text>
<line x1="0" y1="150" x2="285" y2="150" fill="none" stroke="rgb(0,0,255)"/>
<use xlink:href="#pk_sym" x="4" y="157" width="8" height="8" fill-opacity="1.0"/>
<text x="16" y="164" fill="rgb(0,0,0)" fill-opacity="1.0" font-size="10" stroke="none">
Orden_PK (id)
</text>
<line x1="0" y1="170" x2="285" y2="170" fill="none" stroke="rgb(0,0,255)"/>
<use xlink:href="#fk_sym" x="4" y="177" width="8" height="8" fill-opacity="1.0"/><a xlink:href="#3E358BB1-8E8B633D93E3" >
<text x="16" y="184" fill="rgb(0,0,0)" fill-opacity="1.0" font-size="10" stroke="none">
Orden_Estado_FK (Estado_id)
</text></a>
<use xlink:href="#fk_sym" x="4" y="191" width="8" height="8" fill-opacity="1.0"/><a xlink:href="#8D678204-7069AAD1C3D8" >
<text x="16" y="198" fill="rgb(0,0,0)" fill-opacity="1.0" font-size="10" stroke="none">
Orden_Empleado_FK (Empleado_id)
</text></a>
<use xlink:href="#fk_sym" x="4" y="205" width="8" height="8" fill-opacity="1.0"/><a xlink:href="#6A278336-D51EBD0305CF" >
<text x="16" y="212" fill="rgb(0,0,0)" fill-opacity="1.0" font-size="10" stroke="none">
Orden_Cliente_FK (Cliente_dpi)
</text></a>
<use xlink:href="#fk_sym" x="4" y="219" width="8" height="8" fill-opacity="1.0"/><a xlink:href="#AEF81EE8-0ADB63213DFC" >
<text x="16" y="226" fill="rgb(0,0,0)" fill-opacity="1.0" font-size="10" stroke="none">
Orden_Direccion_cliente_FK (Direccion_cliente_id)
</text></a>
<line x1="0" y1="232" x2="285" y2="232" fill="none" stroke="rgb(0,0,255)"/>
<text x="2" y="246" fill="rgb(0,0,0)" fill-opacity="1.0" font-size="10" stroke="none">
U
</text>
<text x="16" y="246" fill="rgb(0,0,0)" fill-opacity="1.0" font-size="10" stroke="none">
Orden__IDX ()
</text>
<polygon points="279,229 275,221 283,221" stroke-dasharray="none" stroke="rgb(0,0,255)" fill="rgb(0,0,255)" stroke-width="1" />
</g>
<g  fill="rgb(255,255,180)" stroke="rgb(0,0,255)" fill-opacity="1.0" stroke-opacity="1.0" clip-path="url(#clipPath8_0_)" transform="translate(255,68)" >
<rect x="0" y="0" width="264" height="124" />
<text id="97B4A6D5-7071D5760043" x="110" y="14" fill="rgb(0,0,255)" font-weight="bold"  fill-opacity="1.0" font-size="10" stroke="none">
Producto
</text>
<line x1="0" y1="18" x2="263" y2="18" fill="none" stroke="rgb(0,0,255)"/>
<text x="16" y="32" fill="rgb(255,0,0)" fill-opacity="1.0" font-size="10" stroke="none">
*
</text>
<text x="2" y="32" fill="rgb(0,0,255)" fill-opacity="1.0" font-size="10" stroke="none">
P
</text>
<text x="26" y="32" fill="rgb(0,0,0)" fill-opacity="1.0" font-size="10" stroke="none">
id
</text>
<text x="132" y="32" fill="rgb(0,128,0)" fill-opacity="1.0" font-size="10" stroke="none">
VARCHAR2 (5)
</text>
<text x="16" y="46" fill="rgb(255,0,0)" fill-opacity="1.0" font-size="10" stroke="none">
*
</text>
<text x="26" y="46" fill="rgb(0,0,0)" fill-opacity="1.0" font-size="10" stroke="none">
descripcion
</text>
<text x="132" y="46" fill="rgb(0,128,0)" fill-opacity="1.0" font-size="10" stroke="none">
VARCHAR2 (50)
</text>
<text x="16" y="60" fill="rgb(255,0,0)" fill-opacity="1.0" font-size="10" stroke="none">
*
</text>
<text x="26" y="60" fill="rgb(0,0,0)" fill-opacity="1.0" font-size="10" stroke="none">
precio
</text>
<text x="132" y="60" fill="rgb(0,128,0)" fill-opacity="1.0" font-size="10" stroke="none">
INTEGER
</text>
<text x="16" y="74" fill="rgb(255,0,0)" fill-opacity="1.0" font-size="10" stroke="none">
*
</text>
<text x="2" y="74" fill="rgb(0,0,0)" fill-opacity="1.0" font-size="10" stroke="none">
F
</text>
<text x="26" y="74" fill="rgb(0,0,0)" fill-opacity="1.0" font-size="10" stroke="none">
Tipo_Producto_id
</text>
<text x="132" y="74" fill="rgb(0,128,0)" fill-opacity="1.0" font-size="10" stroke="none">
INTEGER
</text>
<line x1="0" y1="80" x2="263" y2="80" fill="none" stroke="rgb(0,0,255)"/>
<use xlink:href="#pk_sym" x="4" y="87" width="8" height="8" fill-opacity="1.0"/>
<text x="16" y="94" fill="rgb(0,0,0)" fill-opacity="1.0" font-size="10" stroke="none">
Producto_PK (id)
</text>
<line x1="0" y1="100" x2="263" y2="100" fill="none" stroke="rgb(0,0,255)"/>
<use xlink:href="#fk_sym" x="4" y="107" width="8" height="8" fill-opacity="1.0"/><a xlink:href="#89BE3561-AF56348D00A2" >
<text x="16" y="114" fill="rgb(0,0,0)" fill-opacity="1.0" font-size="10" stroke="none">
Producto_Tipo_Producto_FK (Tipo_Producto_id)
</text></a>
</g>
<g  fill="rgb(255,255,180)" stroke="rgb(0,0,255)" fill-opacity="1.0" stroke-opacity="1.0" clip-path="url(#clipPath9_0_)" transform="translate(546,156)" >
<rect x="0" y="0" width="245" height="149" />
<text id="E0B8AC2D-116B4ABCEF73" x="83" y="14" fill="rgb(0,0,255)" font-weight="bold"  fill-opacity="1.0" font-size="10" stroke="none">
Producto_Orden
</text>
<line x1="0" y1="18" x2="244" y2="18" fill="none" stroke="rgb(0,0,255)"/>
<text x="16" y="32" fill="rgb(255,0,0)" fill-opacity="1.0" font-size="10" stroke="none">
*
</text>
<text x="2" y="32" fill="rgb(0,0,255)" fill-opacity="1.0" font-size="10" stroke="none">
P
</text>
<text x="26" y="32" fill="rgb(0,0,0)" fill-opacity="1.0" font-size="10" stroke="none">
id
</text>
<text x="103" y="32" fill="rgb(0,128,0)" fill-opacity="1.0" font-size="10" stroke="none">
INTEGER
</text>
<text x="16" y="46" fill="rgb(255,0,0)" fill-opacity="1.0" font-size="10" stroke="none">
*
</text>
<text x="26" y="46" fill="rgb(0,0,0)" fill-opacity="1.0" font-size="10" stroke="none">
cantidad
</text>
<text x="103" y="46" fill="rgb(0,128,0)" fill-opacity="1.0" font-size="10" stroke="none">
INTEGER
</text>
<text x="16" y="60" fill="rgb(255,0,0)" fill-opacity="1.0" font-size="10" stroke="none">

</text>
<text x="26" y="60" fill="rgb(0,0,0)" fill-opacity="1.0" font-size="10" stroke="none">
observacion
</text>
<text x="103" y="60" fill="rgb(0,128,0)" fill-opacity="1.0" font-size="10" stroke="none">
VARCHAR2 (50)
</text>
<text x="16" y="74" fill="rgb(255,0,0)" fill-opacity="1.0" font-size="10" stroke="none">
*
</text>
<text x="2" y="74" fill="rgb(0,0,0)" fill-opacity="1.0" font-size="10" stroke="none">
F
</text>
<text x="26" y="74" fill="rgb(0,0,0)" fill-opacity="1.0" font-size="10" stroke="none">
Orden_id
</text>
<text x="103" y="74" fill="rgb(0,128,0)" fill-opacity="1.0" font-size="10" stroke="none">
INTEGER
</text>
<text x="16" y="88" fill="rgb(255,0,0)" fill-opacity="1.0" font-size="10" stroke="none">
*
</text>
<text x="2" y="88" fill="rgb(0,0,0)" fill-opacity="1.0" font-size="10" stroke="none">
F
</text>
<text x="26" y="88" fill="rgb(0,0,0)" fill-opacity="1.0" font-size="10" stroke="none">
Producto_id
</text>
<text x="103" y="88" fill="rgb(0,128,0)" fill-opacity="1.0" font-size="10" stroke="none">
VARCHAR2 (5)
</text>
<line x1="0" y1="94" x2="244" y2="94" fill="none" stroke="rgb(0,0,255)"/>
<use xlink:href="#pk_sym" x="4" y="101" width="8" height="8" fill-opacity="1.0"/>
<text x="16" y="108" fill="rgb(0,0,0)" fill-opacity="1.0" font-size="10" stroke="none">
Producto_Orden_PK (id)
</text>
<line x1="0" y1="114" x2="244" y2="114" fill="none" stroke="rgb(0,0,255)"/>
<use xlink:href="#fk_sym" x="4" y="121" width="8" height="8" fill-opacity="1.0"/><a xlink:href="#FD8CB94D-C0AC429F83A3" >
<text x="16" y="128" fill="rgb(0,0,0)" fill-opacity="1.0" font-size="10" stroke="none">
Producto_Orden_Orden_FK (Orden_id)
</text></a>
<use xlink:href="#fk_sym" x="4" y="135" width="8" height="8" fill-opacity="1.0"/><a xlink:href="#97B4A6D5-7071D5760043" >
<text x="16" y="142" fill="rgb(0,0,0)" fill-opacity="1.0" font-size="10" stroke="none">
Producto_Orden_Producto_FK (Producto_id)
</text></a>
</g>
<g  fill="rgb(255,255,180)" stroke="rgb(0,0,255)" fill-opacity="1.0" stroke-opacity="1.0" clip-path="url(#clipPath10_0_)" transform="translate(21,354)" >
<rect x="0" y="0" width="211" height="108" />
<text id="B823E981-977A21A89CDC" x="89" y="14" fill="rgb(0,0,255)" font-weight="bold"  fill-opacity="1.0" font-size="10" stroke="none">
Puesto
</text>
<line x1="0" y1="18" x2="210" y2="18" fill="none" stroke="rgb(0,0,255)"/>
<text x="16" y="32" fill="rgb(255,0,0)" fill-opacity="1.0" font-size="10" stroke="none">
*
</text>
<text x="2" y="32" fill="rgb(0,0,255)" fill-opacity="1.0" font-size="10" stroke="none">
P
</text>
<text x="26" y="32" fill="rgb(0,0,0)" fill-opacity="1.0" font-size="10" stroke="none">
id
</text>
<text x="101" y="32" fill="rgb(0,128,0)" fill-opacity="1.0" font-size="10" stroke="none">
INTEGER
</text>
<text x="16" y="46" fill="rgb(255,0,0)" fill-opacity="1.0" font-size="10" stroke="none">
*
</text>
<text x="26" y="46" fill="rgb(0,0,0)" fill-opacity="1.0" font-size="10" stroke="none">
nombre
</text>
<text x="101" y="46" fill="rgb(0,128,0)" fill-opacity="1.0" font-size="10" stroke="none">
VARCHAR2 (50)
</text>
<text x="16" y="60" fill="rgb(255,0,0)" fill-opacity="1.0" font-size="10" stroke="none">
*
</text>
<text x="26" y="60" fill="rgb(0,0,0)" fill-opacity="1.0" font-size="10" stroke="none">
descripcion
</text>
<text x="101" y="60" fill="rgb(0,128,0)" fill-opacity="1.0" font-size="10" stroke="none">
VARCHAR2 (50)
</text>
<text x="16" y="74" fill="rgb(255,0,0)" fill-opacity="1.0" font-size="10" stroke="none">
*
</text>
<text x="26" y="74" fill="rgb(0,0,0)" fill-opacity="1.0" font-size="10" stroke="none">
salario
</text>
<text x="101" y="74" fill="rgb(0,128,0)" fill-opacity="1.0" font-size="10" stroke="none">
INTEGER
</text>
<line x1="0" y1="80" x2="210" y2="80" fill="none" stroke="rgb(0,0,255)"/>
<use xlink:href="#pk_sym" x="4" y="87" width="8" height="8" fill-opacity="1.0"/>
<text x="16" y="94" fill="rgb(0,0,0)" fill-opacity="1.0" font-size="10" stroke="none">
Puesto_PK (id)
</text>
</g>
<g  fill="rgb(255,255,180)" stroke="rgb(0,0,255)" fill-opacity="1.0" stroke-opacity="1.0" clip-path="url(#clipPath11_0_)" transform="translate(53,169)" >
<rect x="0" y="0" width="180" height="145" />
<text id="02800043-AA489C77C53B" x="61" y="14" fill="rgb(0,0,255)" font-weight="bold"  fill-opacity="1.0" font-size="10" stroke="none">
Restaurante
</text>
<line x1="0" y1="18" x2="179" y2="18" fill="none" stroke="rgb(0,0,255)"/>
<text x="16" y="32" fill="rgb(255,0,0)" fill-opacity="1.0" font-size="10" stroke="none">
*
</text>
<text x="2" y="32" fill="rgb(0,0,255)" fill-opacity="1.0" font-size="10" stroke="none">
P
</text>
<text x="26" y="32" fill="rgb(0,0,0)" fill-opacity="1.0" font-size="10" stroke="none">
id
</text>
<text x="91" y="32" fill="rgb(0,128,0)" fill-opacity="1.0" font-size="10" stroke="none">
VARCHAR2 (50)
</text>
<text x="16" y="46" fill="rgb(255,0,0)" fill-opacity="1.0" font-size="10" stroke="none">
*
</text>
<text x="26" y="46" fill="rgb(0,0,0)" fill-opacity="1.0" font-size="10" stroke="none">
direccion
</text>
<text x="91" y="46" fill="rgb(0,128,0)" fill-opacity="1.0" font-size="10" stroke="none">
VARCHAR2 (50)
</text>
<text x="16" y="60" fill="rgb(255,0,0)" fill-opacity="1.0" font-size="10" stroke="none">
*
</text>
<text x="26" y="60" fill="rgb(0,0,0)" fill-opacity="1.0" font-size="10" stroke="none">
municipio
</text>
<text x="91" y="60" fill="rgb(0,128,0)" fill-opacity="1.0" font-size="10" stroke="none">
VARCHAR2 (50)
</text>
<text x="16" y="74" fill="rgb(255,0,0)" fill-opacity="1.0" font-size="10" stroke="none">
*
</text>
<text x="26" y="74" fill="rgb(0,0,0)" fill-opacity="1.0" font-size="10" stroke="none">
zona
</text>
<text x="91" y="74" fill="rgb(0,128,0)" fill-opacity="1.0" font-size="10" stroke="none">
INTEGER
</text>
<text x="16" y="88" fill="rgb(255,0,0)" fill-opacity="1.0" font-size="10" stroke="none">
*
</text>
<text x="26" y="88" fill="rgb(0,0,0)" fill-opacity="1.0" font-size="10" stroke="none">
telefono
</text>
<text x="91" y="88" fill="rgb(0,128,0)" fill-opacity="1.0" font-size="10" stroke="none">
INTEGER
</text>
<text x="16" y="102" fill="rgb(255,0,0)" fill-opacity="1.0" font-size="10" stroke="none">
*
</text>
<text x="26" y="102" fill="rgb(0,0,0)" fill-opacity="1.0" font-size="10" stroke="none">
personal
</text>
<text x="91" y="102" fill="rgb(0,128,0)" fill-opacity="1.0" font-size="10" stroke="none">
INTEGER
</text>
<text x="16" y="116" fill="rgb(255,0,0)" fill-opacity="1.0" font-size="10" stroke="none">
*
</text>
<text x="26" y="116" fill="rgb(0,0,0)" fill-opacity="1.0" font-size="10" stroke="none">
parqueo
</text>
<text x="91" y="116" fill="rgb(0,128,0)" fill-opacity="1.0" font-size="10" stroke="none">
CHAR (1)
</text>
<line x1="0" y1="122" x2="179" y2="122" fill="none" stroke="rgb(0,0,255)"/>
<use xlink:href="#pk_sym" x="4" y="129" width="8" height="8" fill-opacity="1.0"/>
<text x="16" y="136" fill="rgb(0,0,0)" fill-opacity="1.0" font-size="10" stroke="none">
Restaurante_PK (id)
</text>
</g>
<g  fill="rgb(255,255,180)" stroke="rgb(0,0,255)" fill-opacity="1.0" stroke-opacity="1.0" clip-path="url(#clipPath12_0_)" transform="translate(584,61)" >
<rect x="0" y="0" width="184" height="78" />
<text id="89BE3561-AF56348D00A2" x="57" y="14" fill="rgb(0,0,255)" font-weight="bold"  fill-opacity="1.0" font-size="10" stroke="none">
Tipo_Producto
</text>
<line x1="0" y1="18" x2="183" y2="18" fill="none" stroke="rgb(0,0,255)"/>
<text x="16" y="32" fill="rgb(255,0,0)" fill-opacity="1.0" font-size="10" stroke="none">
*
</text>
<text x="2" y="32" fill="rgb(0,0,255)" fill-opacity="1.0" font-size="10" stroke="none">
P
</text>
<text x="26" y="32" fill="rgb(0,0,0)" fill-opacity="1.0" font-size="10" stroke="none">
id
</text>
<text x="101" y="32" fill="rgb(0,128,0)" fill-opacity="1.0" font-size="10" stroke="none">
INTEGER
</text>
<text x="16" y="46" fill="rgb(255,0,0)" fill-opacity="1.0" font-size="10" stroke="none">
*
</text>
<text x="26" y="46" fill="rgb(0,0,0)" fill-opacity="1.0" font-size="10" stroke="none">
descripcion
</text>
<text x="101" y="46" fill="rgb(0,128,0)" fill-opacity="1.0" font-size="10" stroke="none">
VARCHAR2 (5)
</text>
<line x1="0" y1="52" x2="183" y2="52" fill="none" stroke="rgb(0,0,255)"/>
<use xlink:href="#pk_sym" x="4" y="59" width="8" height="8" fill-opacity="1.0"/>
<text x="16" y="66" fill="rgb(0,0,0)" fill-opacity="1.0" font-size="10" stroke="none">
Tipo_Producto_PK (id)
</text>
</g>
<g  fill="rgb(255,255,180)" stroke="rgb(0,0,255)" fill-opacity="1.0" stroke-opacity="1.0" clip-path="url(#clipPath6_0_)" transform="translate(110,544)" >
<rect x="0" y="0" width="186" height="111" />
<text id="D6E247BF-D01A3A0DE99D" x="73" y="14" fill="rgb(0,0,255)" font-weight="bold"  fill-opacity="1.0" font-size="10" stroke="none">
Historial
</text>
<line x1="0" y1="18" x2="185" y2="18" fill="none" stroke="rgb(0,0,255)"/>
<text x="16" y="32" fill="rgb(255,0,0)" fill-opacity="1.0" font-size="10" stroke="none">
*
</text>
<text x="2" y="32" fill="rgb(0,0,255)" fill-opacity="1.0" font-size="10" stroke="none">
P
</text>
<text x="26" y="32" fill="rgb(0,0,0)" fill-opacity="1.0" font-size="10" stroke="none">
id
</text>
<text x="101" y="32" fill="rgb(0,128,0)" fill-opacity="1.0" font-size="10" stroke="none">
INTEGER
</text>
<text x="16" y="46" fill="rgb(255,0,0)" fill-opacity="1.0" font-size="10" stroke="none">
*
</text>
<text x="26" y="46" fill="rgb(0,0,0)" fill-opacity="1.0" font-size="10" stroke="none">
fecha
</text>
<text x="101" y="46" fill="rgb(0,128,0)" fill-opacity="1.0" font-size="10" stroke="none">
DATE
</text>
<text x="16" y="60" fill="rgb(255,0,0)" fill-opacity="1.0" font-size="10" stroke="none">
*
</text>
<text x="26" y="60" fill="rgb(0,0,0)" fill-opacity="1.0" font-size="10" stroke="none">
descripcion
</text>
<text x="101" y="60" fill="rgb(0,128,0)" fill-opacity="1.0" font-size="10" stroke="none">
VARCHAR2 (50)
</text>
<text x="16" y="74" fill="rgb(255,0,0)" fill-opacity="1.0" font-size="10" stroke="none">
*
</text>
<text x="26" y="74" fill="rgb(0,0,0)" fill-opacity="1.0" font-size="10" stroke="none">
tipo
</text>
<text x="101" y="74" fill="rgb(0,128,0)" fill-opacity="1.0" font-size="10" stroke="none">
VARCHAR2 (20)
</text>
<line x1="0" y1="80" x2="185" y2="80" fill="none" stroke="rgb(0,0,255)"/>
<use xlink:href="#pk_sym" x="4" y="87" width="8" height="8" fill-opacity="1.0"/>
<text x="16" y="94" fill="rgb(0,0,0)" fill-opacity="1.0" font-size="10" stroke="none">
Historial_PK (id)
</text>
</g>

</svg>